<svg xmlns="http://www.w3.org/2000/svg" viewBox="0 0 320 360" role="img" aria-label="Eight index domain layers stacked">
  <g stroke="#ffffff" stroke-opacity="0.7" stroke-width="1" font-family="system-ui, -apple-system, sans-serif" font-size="16" font-weight="600" fill="#ffffff">
    <g transform="translate(0,0)"><path d="M40 22 L260 22 L280 48 L60 48 Z" fill="#b0335a"/><text x="180" y="40" text-anchor="middle">Infrastructure</text></g>
    <g transform="translate(0,40)"><path d="M40 22 L260 22 L280 48 L60 48 Z" fill="#e47a68"/><text x="180" y="40" text-anchor="middle">Communities</text></g>
    <g transform="translate(0,80)"><path d="M40 22 L260 22 L280 48 L60 48 Z" fill="#f0a85d"/><text x="180" y="40" text-anchor="middle">Livelihoods</text></g>
    <g transform="translate(0,120)"><path d="M40 22 L260 22 L280 48 L60 48 Z" fill="#8cd2b2"/><text x="180" y="40" text-anchor="middle">Sense of Place</text></g>
    <g transform="translate(0,160)"><path d="M40 22 L260 22 L280 48 L60 48 Z" fill="#58b6a5"/><text x="180" y="40" text-anchor="middle">Species</text></g>
    <g transform="translate(0,200)"><path d="M40 22 L260 22 L280 48 L60 48 Z" fill="#2c7a6f"/><text x="180" y="40" text-anchor="middle">Habitats</text></g>
    <g transform="translate(0,240)"><path d="M40 22 L260 22 L280 48 L60 48 Z" fill="#1f3c63"/><text x="180" y="40" text-anchor="middle">Water</text></g>
    <g transform="translate(0,280)"><path d="M40 22 L260 22 L280 48 L60 48 Z" fill="#2a1f3d"/><text x="180" y="40" text-anchor="middle">Air</text></g>
  </g>
</svg>
