<svg xmlns="http://www.w3.org/2000/svg" viewBox="0 0 120 120" role="img" aria-label="Wildfire Resilience Index">
  <defs>
    <linearGradient id="hex-grad" x1="0" y1="0" x2="0" y2="1">
      <stop offset="0" stop-color="#2f5a3d"/>
      <stop offset="1" stop-color="#22402c"/>
    </linearGradient>
    <linearGradient id="flame-grad" x1="0" y1="1" x2="0" y2="0">
      <stop offset="0" stop-color="#e4572e"/>
      <stop offset="1" stop-color="#f5a623"/>
    </linearGradient>
  </defs>
  <polygon points="60,6 108,33 108,87 60,114 12,87 12,33" fill="url(#hex-grad)" stroke="#a5be6c" stroke-width="3"/>
  <path d="M60 32c6 10 16 16 16 30 0 12-7 22-16 22s-16-10-16-22c0-9 5-13 9-18 3-4 6-9 7-12z M60 56c3 5 8 8 8 16 0 6-4 10-8 10s-8-4-8-10c0-5 3-7 5-10 1-2 2-4 3-6z" fill="url(#flame-grad)"/>
</svg>
