<svg xmlns="http://www.w3.org/2000/svg" viewBox="0 0 320 320" role="img" aria-label="Highlighted 12 Western US states, British Columbia, and the Yukon">
  <rect width="320" height="320" fill="transparent"/>
  <g fill="#e7ead0" stroke="#c9cfa9" stroke-width="1">
    <path d="M18 30 L90 22 L110 40 L92 70 L22 62 Z"/>
    <path d="M92 70 L110 40 L170 42 L172 84 L100 92 Z"/>
    <path d="M170 42 L240 40 L252 80 L180 84 Z"/>
    <path d="M240 40 L300 36 L302 78 L252 82 Z"/>
  </g>
  <g fill="#6f8c48" stroke="#4a6430" stroke-width="1.2">
    <path d="M52 112 L90 96 L120 122 L96 172 L56 162 Z"/>
    <path d="M120 122 L148 94 L182 110 L174 170 L96 172 Z"/>
    <path d="M52 168 L86 176 L90 220 L54 228 Z"/>
    <path d="M86 176 L132 172 L138 224 L90 220 Z"/>
    <path d="M132 172 L186 178 L184 220 L138 224 Z"/>
    <path d="M54 228 L120 232 L118 266 L50 262 Z"/>
    <path d="M120 232 L186 230 L184 266 L118 266 Z"/>
    <path d="M186 178 L236 182 L234 226 L184 220 Z"/>
    <path d="M236 182 L282 188 L276 230 L234 226 Z"/>
    <path d="M186 230 L234 226 L232 266 L184 266 Z"/>
    <path d="M234 226 L276 230 L274 266 L232 266 Z"/>
    <path d="M50 262 L118 266 L116 294 L52 290 Z"/>
    <path d="M118 266 L184 266 L184 294 L116 294 Z"/>
  </g>
</svg>
